<?xml version="1.0" encoding="UTF-8" standalone="no"?>
<!-- Created with Inkscape (http://www.inkscape.org/) -->

<svg
   xmlns:dc="http://purl.org/dc/elements/1.1/"
   xmlns:cc="http://creativecommons.org/ns#"
   xmlns:rdf="http://www.w3.org/1999/02/22-rdf-syntax-ns#"
   xmlns:svg="http://www.w3.org/2000/svg"
   xmlns="http://www.w3.org/2000/svg"
   xmlns:sodipodi="http://sodipodi.sourceforge.net/DTD/sodipodi-0.dtd"
   xmlns:inkscape="http://www.inkscape.org/namespaces/inkscape"
   width="1000"
   height="1000"
   viewBox="0 0 264.58333 264.58333"
   version="1.1"
   id="svg8"
   inkscape:version="0.92.2 (5c3e80d, 2017-08-06)"
   sodipodi:docname="logo.svg">
  <defs
     id="defs2" />
  <sodipodi:namedview
     id="base"
     pagecolor="#ffffff"
     bordercolor="#666666"
     borderopacity="1.0"
     inkscape:pageopacity="0.0"
     inkscape:pageshadow="2"
     inkscape:zoom="0.49497475"
     inkscape:cx="754.5889"
     inkscape:cy="471.98969"
     inkscape:document-units="mm"
     inkscape:current-layer="layer1"
     showgrid="false"
     inkscape:window-width="1920"
     inkscape:window-height="1017"
     inkscape:window-x="-8"
     inkscape:window-y="-8"
     inkscape:window-maximized="1"
     units="px"
     width="9.5in" />
  <metadata
     id="metadata5">
    <rdf:RDF>
      <cc:Work
         rdf:about="">
        <dc:format>image/svg+xml</dc:format>
        <dc:type
           rdf:resource="http://purl.org/dc/dcmitype/StillImage" />
        <dc:title></dc:title>
      </cc:Work>
    </rdf:RDF>
  </metadata>
  <g
     inkscape:label="Layer 1"
     inkscape:groupmode="layer"
     id="layer1"
     transform="translate(0,-32.416667)">
    <g
       transform="matrix(0.08894007,0,0,0.08581917,86.564629,118.31974)"
       id="layer1-8-3-7"
       inkscape:label="Layer 1"
       style="opacity:0.3"
       inkscape:export-filename="C:\xampp7\htdocs\shield-of-agh-page\img\logofaded.png"
       inkscape:export-xdpi="126.80428"
       inkscape:export-ydpi="126.80428">
      <path
         d="M 989.77588,557.23224 A 471.68549,471.68549 0 0 1 521.58298,1028.9048 471.68549,471.68549 0 0 1 46.456629,564.21722 471.68549,471.68549 0 0 1 507.6134,85.663124 471.68549,471.68549 0 0 1 989.569,543.2638"
         sodipodi:open="true"
         sodipodi:end="6.2535671"
         sodipodi:start="0"
         sodipodi:ry="471.68549"
         sodipodi:rx="471.68549"
         sodipodi:cy="557.23224"
         sodipodi:cx="518.09039"
         sodipodi:type="arc"
         id="path4327-8-1"
         style="fill:#000000;stroke:#000000;stroke-width:0.88660401;stroke-miterlimit:4;stroke-dasharray:none;stroke-opacity:1" />
      <path
         id="path4343-9-0-9"
         d="m 515.24823,722.88245 c 0.98681,1.1127 2.03047,2.17261 3.265,3.48349 1.30682,-1.4587 2.41546,-2.66643 3.50298,-3.90177 62.99518,-71.30308 125.98793,-142.60697 188.98148,-213.91492 57.3943,-64.96799 114.76181,-129.95629 172.23815,-194.84874 2.55515,-2.88328 2.72652,-4.77 0.5929,-8.00009 -17.56527,-26.55702 -37.63451,-51.01129 -60.27028,-73.39528 -3.19354,-3.15049 -5.27275,-3.784 -9.19969,-0.63838 -64.23377,51.45556 -128.61861,102.72513 -192.96852,154.0345 -1.27677,1.01442 -2.58196,1.98986 -3.91233,3.01566 -0.48082,-0.65869 -0.82194,-0.98681 -0.99574,-1.38722 -13.82756,-31.0192 -28.7467,-61.61851 -41.06926,-93.2233 -8.10161,-20.77017 1.42621,-33.87488 19.10192,-37.28202 8.73349,-1.68286 17.96486,-0.79919 26.97449,-1.0331 1.24267,-0.0333 2.49263,0.17543 3.66137,0.26802 -0.043,-11.192 -4.74889,-18.93624 -14.96788,-22.38156 -7.69226,-2.59576 -15.5892,-4.77324 -23.55111,-6.31641 -8.85856,-1.71941 -17.89663,-2.5121 -26.85916,-3.70846 -10.26772,0 -20.53706,0 -30.80723,0 -1.44651,0.31513 -2.88003,0.82518 -4.33223,0.90884 -18.27105,1.07291 -32.43566,8.96497 -41.25524,25.26483 -6.9613,12.86268 -14.137,25.66768 -20.09849,38.99818 -13.55791,30.31097 -26.42627,60.92977 -39.58133,91.41942 -1.18824,2.75658 -2.43982,5.48554 -3.85872,8.66852 C 352.81648,335.14804 286.10065,281.62627 218.4971,227.3922 c -1.44976,1.92164 -2.45769,3.67516 -3.84735,5.0437 -23.01019,22.65852 -43.27842,47.53999 -61.01912,74.52667 -2.3456,3.56633 -2.13037,5.53508 0.68874,8.71319 120.37649,135.67735 240.64334,271.45218 360.92886,407.20669 z"
         inkscape:connector-curvature="0"
         style="clip-rule:evenodd;fill:#090909;fill-opacity:1;fill-rule:evenodd" />
      <path
         id="rect4437-2-7-5"
         d="M 794.35111,455.50748 974.38438,706.71544 859.47958,870.0007 635.25376,629.02686 Z"
         style="fill:#c71231;fill-opacity:1;stroke:#000000;stroke-width:14.73683167;stroke-linejoin:round;stroke-miterlimit:4;stroke-dasharray:none;stroke-opacity:1"
         inkscape:connector-curvature="0" />
      <path
         inkscape:connector-curvature="0"
         id="rect4437-5-4"
         d="M 245.48471,455.73116 65.451408,706.93907 180.35624,870.22432 404.58204,629.25051 Z"
         style="fill:#c71231;fill-opacity:1;stroke:#000000;stroke-width:14.73683167;stroke-linejoin:round;stroke-miterlimit:4;stroke-dasharray:none;stroke-opacity:1" />
      <path
         inkscape:connector-curvature="0"
         id="path4312-1-2"
         d="m 787.55673,915.76606 -3.94735,-7.89472 -170.39463,-215.13144 -197.36828,0.65789 -173.02617,217.76303 42.10521,45.3947 134.86832,57.23678 174.34199,1.3158 z"
         style="fill:#ffffff;fill-rule:evenodd;stroke:#000000;stroke-width:0.92105198px;stroke-linecap:butt;stroke-linejoin:miter;stroke-opacity:1" />
      <path
         id="path3480-7-7-9"
         d="m 911.58196,326.64658 22.33011,0.93003 40.93826,88.38861 10.23409,164.68122 -169.33325,-149.79507 z"
         style="fill:#00703e;fill-opacity:1;fill-rule:evenodd;stroke:#000000;stroke-width:14.73683167;stroke-linecap:butt;stroke-linejoin:miter;stroke-miterlimit:4;stroke-dasharray:none;stroke-opacity:1"
         inkscape:connector-curvature="0" />
      <path
         inkscape:connector-curvature="0"
         id="path3480-4-9"
         d="M 128.25385,326.87022 105.92372,327.80025 64.985491,416.18887 54.751376,580.87009 224.08463,431.075 Z"
         style="fill:#00703e;fill-opacity:1;fill-rule:evenodd;stroke:#000000;stroke-width:14.73683167;stroke-linecap:butt;stroke-linejoin:miter;stroke-miterlimit:4;stroke-dasharray:none;stroke-opacity:1" />
      <path
         inkscape:connector-curvature="0"
         id="path4284-1-7"
         d="M 205.2966,411.21842 40.331147,577.51509 86.495286,735.30999 305.1462,521.32911 Z"
         style="fill:#231f1c;fill-opacity:1;fill-rule:evenodd;stroke:#000000;stroke-width:14.73683167;stroke-linecap:butt;stroke-linejoin:miter;stroke-miterlimit:4;stroke-dasharray:none;stroke-opacity:1" />
      <path
         sodipodi:nodetypes="ccccc"
         inkscape:connector-curvature="0"
         id="path4314-2-7"
         d="M 426.9178,673.66097 H 602.57558 L 577.5756,581.55578 C 540.03787,568.92698 501.96059,545.25907 469.68093,509.8453 Z"
         style="fill:#ffffff;fill-rule:evenodd;stroke:#000000;stroke-width:0.92105198px;stroke-linecap:butt;stroke-linejoin:miter;stroke-opacity:1" />
      <path
         sodipodi:nodetypes="cccc"
         inkscape:connector-curvature="0"
         id="path4316-0-8"
         d="m 381.47128,191.98969 406.2549,397.14738 C 658.77545,610.74842 557.67674,578.8886 482.66897,506.89309 364.84854,384.66893 368.31817,287.70731 381.47128,191.98969 Z"
         style="fill:#ffffff;fill-rule:evenodd;stroke:#000000;stroke-width:14.00000191;stroke-linecap:butt;stroke-linejoin:miter;stroke-miterlimit:4;stroke-dasharray:none;stroke-opacity:1" />
      <path
         id="path4284-0-7-7"
         d="M 834.53919,410.99477 999.50469,577.29143 953.34053,735.08637 734.68961,521.10546 Z"
         style="fill:#231f1c;fill-opacity:1;fill-rule:evenodd;stroke:#000000;stroke-width:14.73683167;stroke-linecap:butt;stroke-linejoin:miter;stroke-miterlimit:4;stroke-dasharray:none;stroke-opacity:1"
         inkscape:connector-curvature="0" />
      <path
         inkscape:connector-curvature="0"
         id="path4318-5-7"
         d="m 712.90233,246.12493 a 30.331101,29.969727 0 0 0 -30.33047,29.9691 30.331101,29.969727 0 0 0 30.33047,29.96908 30.331101,29.969727 0 0 0 30.33196,-29.96908 30.331101,29.969727 0 0 0 -30.33196,-29.9691 z m -42.0716,8.89307 -161.63479,44.47139 15.26286,15.08249 144.80705,-42.53783 c -1.29823,-4.47277 -0.24858,-10.49352 1.56488,-17.01605 z m 6.26253,42.92515 -83.75417,83.14213 13.30751,12.37435 84.14465,-83.52944 z m 58.31361,15.46831 c -9.23874,6.14058 -14.87923,5.1708 -21.13339,5.41329 l -41.09392,141.53411 16.04531,14.69518 z"
         style="fill:#ffffff;fill-rule:evenodd;stroke:#000000;stroke-width:0.77024138px;stroke-linecap:butt;stroke-linejoin:miter;stroke-opacity:1" />
      <path
         inkscape:connector-curvature="0"
         id="path3443-7-7"
         d="M 513.10272,41.424277 A 499.99969,499.99969 0 0 0 13.102801,541.42418 499.99969,499.99969 0 0 0 513.10272,1041.4241 499.99969,499.99969 0 0 0 1013.1008,541.42418 499.99969,499.99969 0 0 0 513.10272,41.424277 Z m 1.31502,49.999443 A 448.68392,448.68392 0 0 1 963.10137,540.10917 448.68392,448.68392 0 0 1 514.41774,988.7928 448.68392,448.68392 0 0 1 65.734095,540.10917 448.68392,448.68392 0 0 1 514.41774,91.42372 Z"
         style="fill:#000000" />
      <path
         sodipodi:nodetypes="saass"
         inkscape:connector-curvature="0"
         id="rect4402-5-4"
         d="m 698.0087,221.39044 c -3.56047,0.20317 4.12561,-7.51301 7.6911,-7.43722 34.18458,0.72664 71.36965,40.19008 70.643,74.37468 -0.0758,3.5655 -7.58567,11.00197 -7.69109,7.43725 -1.322,-44.70452 -44.71982,-75.85382 -70.64301,-74.37471 z"
         style="fill:#ffffff;fill-opacity:1;stroke:#000000;stroke-width:0.82894683;stroke-miterlimit:4;stroke-dasharray:none;stroke-opacity:1" />
      <path
         sodipodi:nodetypes="saass"
         inkscape:connector-curvature="0"
         id="rect4402-9-0-6"
         d="m 698.00715,187.97141 c -3.38537,-0.34279 3.99995,-7.08926 7.40153,-7.00208 50.00299,1.28158 104.6296,58.56433 103.34287,108.36786 -0.0875,3.388 -7.37958,10.39123 -7.40151,7.0021 C 801.14146,264.0947 771.09866,195.37324 698.00715,187.97141 Z"
         style="fill:#ffffff;fill-opacity:1;stroke:#000000;stroke-width:1.21023571;stroke-miterlimit:4;stroke-dasharray:none;stroke-opacity:1" />
      <path
         sodipodi:nodetypes="saass"
         inkscape:connector-curvature="0"
         id="rect4402-9-1-6-9"
         d="m 697.39475,154.66015 c -3.51937,-0.22075 4.47262,-6.87367 7.99477,-6.70797 67.34272,3.16795 142.56939,76.79453 139.29754,141.99882 -0.17113,3.41028 -7.91612,10.12139 -7.99474,6.70794 -1.91069,-82.93885 -91.33239,-138.9903 -139.29757,-141.99879 z"
         style="fill:#ffffff;fill-opacity:1;stroke:#000000;stroke-width:1.60839796;stroke-miterlimit:4;stroke-dasharray:none;stroke-opacity:1" />
    </g>
    <rect
       style="opacity:0.3;fill:none;fill-opacity:0.42211058;stroke:#000000;stroke-width:0.0682518;stroke-miterlimit:4;stroke-dasharray:0.0682518, 0.13650359;stroke-dashoffset:0;stroke-opacity:1"
       id="rect939"
       width="262.19528"
       height="252.99483"
       x="1.1023052"
       y="38.286896" />
  </g>
</svg>
